<?xml version="1.0" encoding="utf-8"?>
<!-- Generator: Adobe Illustrator 23.0.0, SVG Export Plug-In . SVG Version: 6.00 Build 0)  -->
<svg version="1.1" id="Layer_1" xmlns="http://www.w3.org/2000/svg" xmlns:xlink="http://www.w3.org/1999/xlink" x="0px" y="0px"
	 viewBox="0 0 1882.4 600" style="enable-background:new 0 0 1882.4 600;" xml:space="preserve">
<style type="text/css">
	.st0{fill:#E5E5E5;}
	.st1{fill:#C9C9C9;}
	.st2{fill:#B7B7B7;}
</style>
<rect x="0.1" class="st0" width="1882.2" height="451.7"/>
<rect x="0.1" y="445" class="st1" width="1882.2" height="155"/>
<path class="st2" d="M1808.4,147.8c-16.3,0-29.4-13.2-29.4-29.4c0-7.4,2.8-14.2,7.3-19.4c-15.2,1.1-27.3,13.8-27.3,29.4
	c0,16.3,13.2,29.4,29.4,29.4c8.8,0,16.8-3.9,22.2-10.1C1809.9,147.7,1809.2,147.8,1808.4,147.8z"/>
<g>
	<circle class="st2" cx="136.2" cy="128.4" r="24.4"/>
	<g>
		<path class="st2" d="M162.3,108l9.7-15.4l-15.4,9.7C158.7,104,160.6,105.9,162.3,108z"/>
		<path class="st2" d="M115.8,102.3l-15.4-9.7l9.7,15.4C111.8,105.9,113.7,104,115.8,102.3z"/>
		<path class="st2" d="M136.2,95.3c1.4,0,2.7,0.1,4,0.3l-4-17.7l-4,17.7C133.5,95.4,134.9,95.3,136.2,95.3z"/>
		<path class="st2" d="M186.8,128.4l-17.7-4c0.2,1.3,0.3,2.7,0.3,4c0,1.4-0.1,2.7-0.3,4L186.8,128.4z"/>
		<path class="st2" d="M136.2,161.4c-1.4,0-2.7-0.1-4-0.3l4,17.7l4-17.7C138.9,161.4,137.6,161.4,136.2,161.4z"/>
		<path class="st2" d="M103.1,128.4c0-1.4,0.1-2.7,0.3-4l-17.7,4l17.7,4C103.2,131,103.1,129.7,103.1,128.4z"/>
		<path class="st2" d="M156.6,154.4l15.4,9.7l-9.7-15.4C160.6,150.9,158.7,152.8,156.6,154.4z"/>
		<path class="st2" d="M110.2,148.7l-9.7,15.4l15.4-9.7C113.7,152.8,111.8,150.9,110.2,148.7z"/>
	</g>
</g>
</svg>
