<svg id="Capa_1" data-name="Capa 1" xmlns="http://www.w3.org/2000/svg" viewBox="0 0 462.84 465.78"><defs><style>.cls-1{fill:#e5e9ea;}.cls-2{fill:#42c0e2;}.cls-3{fill:#49bd90;}.cls-4{fill:#fa70b2;}.cls-5{fill:#ffd061;}.cls-6{fill:#ef8930;}.cls-7{fill:#3e4b5c;}.cls-8{fill:#dd215b;}.cls-9{fill:#243142;}</style></defs><title>roomPersonalizeActive</title><g id="surface1"><path class="cls-1" d="M371.93,186.3A157.78,157.78,0,0,1,343,197c-.76.21-1.53.4-2.3.59-22.13,5.53-43.74,6-62.35,2.38-28.13-5.56-49.4-20.66-55.18-42.5-7.62-28.81,14-60.77,50.81-80.46a31.1,31.1,0,0,0,16.39-25,32.93,32.93,0,0,0-28.46-35.33C238,13.57,203.45,12,169.3,21,54.58,51.37-13.27,172.05,15.54,287.17c30,119.9,152.22,191.7,271.31,160,97.8-26,163.26-115,164.17-212,0-.78,0-1.64-.06-2.59C448.82,193.6,407.07,169.14,371.93,186.3Zm-9.39,134.79a32,32,0,1,1,22.76-39.15A32,32,0,0,1,362.54,321.09Z"/><path class="cls-2" d="M305.2,369.84a39.13,39.13,0,1,1-39.13-39.14A39.13,39.13,0,0,1,305.2,369.84Z"/><path class="cls-3" d="M195.26,342.6a39.13,39.13,0,1,1-39.13-39.13A39.12,39.12,0,0,1,195.26,342.6Z"/><path class="cls-4" d="M130.22,247.15A39.13,39.13,0,1,1,91.09,208,39.13,39.13,0,0,1,130.22,247.15Z"/><path class="cls-5" d="M162.89,136.87a39.14,39.14,0,1,1-39.14-39.13A39.13,39.13,0,0,1,162.89,136.87Z"/><path class="cls-5" d="M427.54,183.79,421,268.19,407,447.27c-.28,3.61-2.7,6.83-6.42,9.14a27.18,27.18,0,0,1-14.24,3.68c-11,0-20-5.77-20.53-13L353.34,267.9l-5.88-84.44Z"/><path class="cls-6" d="M396.26,458.45c-7.24-1.95-12.45-6.54-12.83-12L370.05,183.55l-22.59-.09,5.88,84.44L365.8,447.09c.5,7.23,9.54,13,20.53,13A29,29,0,0,0,396.26,458.45Z"/><path class="cls-7" d="M421,268.19l6.58-84.4-57.49-.24-22.59-.09,5.88,84.44,21,.09Z"/><path class="cls-4" d="M347.46,183.46C310.82,167,307,111.9,339.74,79.4S386.87,27.64,387,5.69c0,0,118.11,121,40.58,178.1Z"/><path class="cls-8" d="M380.62,183.59l-33.16-.13c-36.64-16.48-40.49-71.57-7.72-104S386.87,27.64,387,5.69C398.82,71,333,109.75,380.62,183.59Z"/><path class="cls-9" d="M374.34,268l-4.29-84.44-22.59-.09,5.88,84.44Z"/></g></svg>