<svg id="Capa_1" data-name="Capa 1" xmlns="http://www.w3.org/2000/svg" viewBox="0 0 381.29 500.79"><defs><style>.cls-1{fill:#ecc19c;}.cls-2{fill:#168ef7;}.cls-3{fill:#494846;}</style></defs><title>userActive</title><path id="Caminho_3" data-name="Caminho 3" class="cls-1" d="M273.7,376h0a133.75,133.75,0,0,0-16.45-10.57.76.76,0,0,0-.5-.21,87.88,87.88,0,0,1-45.43-77l-41-.2a87.56,87.56,0,0,1-45.84,77.06h-.1a136.16,136.16,0,0,0-16.52,10.58A138.4,138.4,0,0,0,52,487H329.3A138.41,138.41,0,0,0,273.7,376Z"/><path id="Caminho_5" data-name="Caminho 5" class="cls-1" d="M84.22,81.42V190.29c0,73.62,64.67,133.37,106.47,133.37s106.48-59.74,106.48-133.37V81.42Z"/><path id="Caminho_4" data-name="Caminho 4" class="cls-2" d="M329.3,487.06H52a138.36,138.36,0,0,1,55.91-111.3,134.63,134.63,0,0,1,16.52-10.58h.1a98.58,98.58,0,0,0,12.69-8.46A74.92,74.92,0,0,0,243.15,358l1.13-1.13a80.23,80.23,0,0,0,12.5,8.46c.2,0,.3.1.5.2a126.28,126.28,0,0,1,16.31,10.57h.1A138.11,138.11,0,0,1,329.3,487.06Z"/><path id="Caminho_6" data-name="Caminho 6" class="cls-3" d="M279.74,61.37a125.1,125.1,0,0,0-97.81-47.64A128.54,128.54,0,0,0,55.31,144.16v0a131.74,131.74,0,0,0,41.4,96.5,146.93,146.93,0,0,1-10.18-54.4,140.65,140.65,0,0,1,25.28-82c16.83,7.45,43.92,10.18,73.74,6,29.51-4,54.82-13.8,69-25.48a135.06,135.06,0,0,1,42.71,101.43,144.79,144.79,0,0,1-12.19,59c25-10.38,43.42-47.25,43.42-91.16C328.4,107.11,307.34,68.42,279.74,61.37Z"/></svg>