<svg id="Capa_1" data-name="Capa 1" xmlns="http://www.w3.org/2000/svg" viewBox="0 0 462.84 465.78"><defs><style>.cls-1{fill:#6990d7;}.cls-2{fill:#1ed688;}.cls-3{fill:#ffc14f;}.cls-4{fill:#f2bb88;}.cls-5{fill:#f2d1a5;}.cls-6{fill:#919196;}.cls-7{fill:#a0a0a5;}.cls-8{fill:#5a5f64;}</style></defs><title>Artboard 21</title><path class="cls-1" d="M378.89,202.62a31.94,31.94,0,0,1,0-63.46,4.12,4.12,0,0,0,3.68-4.07V122.18a18.88,18.88,0,0,0-18.83-18.82H350.8a4.11,4.11,0,0,0-4.07,3.68,31.95,31.95,0,0,1-63.46,0,4.13,4.13,0,0,0-4.08-3.68H266.24a18.89,18.89,0,0,0-18.83,18.82,18.88,18.88,0,0,0-18.83-18.82l-13.59,0a3.39,3.39,0,0,1-3.37-3,31.94,31.94,0,0,0-63.59,0,3.39,3.39,0,0,1-3.36,3l-13.6,0a18.89,18.89,0,0,0-18.83,18.82v13.55a3.36,3.36,0,0,1-3,3.36,31.95,31.95,0,0,0,0,63.6,3.37,3.37,0,0,1,3,3.37v13.63a18.9,18.9,0,0,0,18.83,18.84l16.81-.06a31.94,31.94,0,0,1,63.74-3,3.38,3.38,0,0,0,3.36,3l13.6.05a18.9,18.9,0,0,0,18.83-18.84,18.9,18.9,0,0,0,18.83,18.84l13-.05a4.11,4.11,0,0,0,4.06-3.68,31.95,31.95,0,0,1,63.47,0,4.11,4.11,0,0,0,4.06,3.68l13,.05a18.9,18.9,0,0,0,18.83-18.84v-13A4.12,4.12,0,0,0,378.89,202.62Z"/><path class="cls-1" d="M350.63,170.89a31.94,31.94,0,0,1,28.26-31.73,4.12,4.12,0,0,0,3.68-4.07V122.18a18.89,18.89,0,0,0-18.83-18.82H350.8a4.13,4.13,0,0,0-4.08,3.68,31.95,31.95,0,0,1-63.46,0,4.11,4.11,0,0,0-4.07-3.68H266.24a18.88,18.88,0,0,0-18.83,18.82v12.91a4.11,4.11,0,0,1-3.68,4.07,31.94,31.94,0,0,0,0,63.46,4.11,4.11,0,0,1,3.68,4.08v13a18.9,18.9,0,0,0,18.83,18.84l13-.05a4.11,4.11,0,0,0,4.06-3.68,31.95,31.95,0,0,1,63.47,0,4.11,4.11,0,0,0,4.06,3.68l13,.05a18.9,18.9,0,0,0,18.83-18.84v-13a4.12,4.12,0,0,0-3.68-4.07A31.94,31.94,0,0,1,350.63,170.89Z"/><path class="cls-2" d="M215.46,170.89a32,32,0,0,1,28.89-31.8,3.37,3.37,0,0,0,3.05-3.36V122.18a18.88,18.88,0,0,0-18.83-18.82l-13.6,0a3.38,3.38,0,0,1-3.36-3,31.94,31.94,0,0,0-63.59,0,3.37,3.37,0,0,1-3.36,3l-13.6,0a18.89,18.89,0,0,0-18.83,18.82v13.55a3.36,3.36,0,0,1-3,3.36,31.95,31.95,0,0,0,0,63.6,3.37,3.37,0,0,1,3,3.37v13.63a18.9,18.9,0,0,0,18.83,18.84l16.81-.06a31.94,31.94,0,0,1,63.74-3,3.38,3.38,0,0,0,3.36,3l13.59.05a18.9,18.9,0,0,0,18.84-18.84V206.06a3.38,3.38,0,0,0-3.05-3.37A31.94,31.94,0,0,1,215.46,170.89Z"/><path class="cls-3" d="M231.44,268.3a6.64,6.64,0,0,0-6.64,6.64v17a6.65,6.65,0,0,0,13.29,0v-17A6.64,6.64,0,0,0,231.44,268.3Z"/><path class="cls-3" d="M231.44,13.65a6.64,6.64,0,0,0-6.64,6.64v17a6.65,6.65,0,0,0,13.29,0v-17A6.64,6.64,0,0,0,231.44,13.65Z"/><path class="cls-3" d="M58.83,133.28a6.64,6.64,0,0,0-6.64-6.65h-17a6.65,6.65,0,0,0,0,13.29h17A6.64,6.64,0,0,0,58.83,133.28Z"/><path class="cls-3" d="M109.68,47.42l-13-10.91a6.64,6.64,0,1,0-8.54,10.17l13,10.92a6.64,6.64,0,0,0,8.54-10.18Z"/><path class="cls-3" d="M66.76,222.2,51,228.48c-8.07,3.21-3.35,15.62,4.91,12.34l15.77-6.27a6.65,6.65,0,0,0-4.91-12.35Z"/><path class="cls-3" d="M439.27,135.44h-17a6.65,6.65,0,0,0,0,13.29h17a6.65,6.65,0,1,0,0-13.29Z"/><path class="cls-3" d="M412.92,269l-13-10.91a6.64,6.64,0,1,0-8.54,10.17l13,10.92A6.64,6.64,0,0,0,412.92,269Z"/><path class="cls-3" d="M357.31,32.5,343.93,43a6.64,6.64,0,1,0,8.18,10.46L365.49,43a6.64,6.64,0,0,0-8.18-10.47Z"/><path class="cls-4" d="M441.55,365.33,289.38,442.48a61.75,61.75,0,0,1-66.57-.18c-9.44-6.09-12.41-6.67-62.07-31.23-22.07-10.79-42.17-14.23-74.94-18.27V297.49H194.47a25.44,25.44,0,0,1,18,7.45c1.49,1.5-9.92-9.91,48.88,48.87a22.23,22.23,0,0,1,6.51,16.33l1-.71,159.49-40.16C449.53,326.6,459,354.25,441.55,365.33Z"/><path class="cls-5" d="M262,384.37a21.54,21.54,0,0,1-30.75.26L190.56,344a11.56,11.56,0,0,0-8.18-3.38H85.8V297.49H194.47a25.44,25.44,0,0,1,18,7.45l48.88,48.87C269.63,362.1,270.22,375.8,262,384.37Z"/><path class="cls-6" d="M91.24,294.84V412.68a27.42,27.42,0,0,1-.45,4.91h0a27,27,0,0,1-26.45,22H39.1a27,27,0,0,1-26.9-26.9V294.84a27,27,0,0,1,22.18-26.48,26.31,26.31,0,0,1,4.72-.42H64.33A27,27,0,0,1,91.24,294.84Z"/><path class="cls-7" d="M91.24,294.84V412.68a27.42,27.42,0,0,1-.45,4.91h0A25.56,25.56,0,0,1,86,418H60.82a27,27,0,0,1-26.9-26.91V273.28a26.64,26.64,0,0,1,.46-4.92,26.31,26.31,0,0,1,4.72-.42H64.33A27,27,0,0,1,91.24,294.84Z"/><path class="cls-8" d="M67.63,397.2a15.91,15.91,0,1,1-15.91-15.91A15.91,15.91,0,0,1,67.63,397.2Z"/></svg>