<svg id="Capa_1" data-name="Capa 1" xmlns="http://www.w3.org/2000/svg" viewBox="0 0 462.84 465.78"><defs><style>.cls-1{fill:#fff;}.cls-2{fill:#aaa;}.cls-3{fill:#ddd;}.cls-4{fill:#ccc;}</style></defs><title>activityActive</title><path class="cls-1" d="M378.89,189a31.95,31.95,0,0,1,0-63.47,4.12,4.12,0,0,0,3.68-4.07v-12.9a18.88,18.88,0,0,0-18.83-18.83H350.8a4.11,4.11,0,0,0-4.07,3.68,31.95,31.95,0,0,1-63.46,0,4.13,4.13,0,0,0-4.08-3.68H266.24a18.89,18.89,0,0,0-18.83,18.83,18.88,18.88,0,0,0-18.83-18.83l-13.59,0a3.39,3.39,0,0,1-3.37-3.05,31.94,31.94,0,0,0-63.59,0,3.39,3.39,0,0,1-3.36,3.05l-13.6,0a18.89,18.89,0,0,0-18.83,18.83v13.54a3.38,3.38,0,0,1-3,3.37,31.94,31.94,0,0,0,0,63.59,3.38,3.38,0,0,1,3,3.37V206a18.9,18.9,0,0,0,18.83,18.84l16.81-.06a31.94,31.94,0,0,1,63.74-3,3.38,3.38,0,0,0,3.36,3.05l13.6,0A18.89,18.89,0,0,0,247.41,206a18.89,18.89,0,0,0,18.83,18.84l13,0a4.11,4.11,0,0,0,4.06-3.68,31.95,31.95,0,0,1,63.47,0,4.11,4.11,0,0,0,4.06,3.68l13,0A18.89,18.89,0,0,0,382.58,206v-13A4.12,4.12,0,0,0,378.89,189Z"/><path class="cls-2" d="M350.63,157.24a32,32,0,0,1,28.26-31.73,4.12,4.12,0,0,0,3.68-4.07v-12.9a18.89,18.89,0,0,0-18.83-18.83H350.8a4.13,4.13,0,0,0-4.08,3.68,31.95,31.95,0,0,1-63.46,0,4.11,4.11,0,0,0-4.07-3.68H266.24a18.88,18.88,0,0,0-18.83,18.83v12.9a4.11,4.11,0,0,1-3.68,4.07,31.95,31.95,0,0,0,0,63.47,4.11,4.11,0,0,1,3.68,4.07v13a18.89,18.89,0,0,0,18.83,18.84l13,0a4.11,4.11,0,0,0,4.06-3.68,31.95,31.95,0,0,1,63.47,0,4.11,4.11,0,0,0,4.06,3.68l13,0A18.89,18.89,0,0,0,382.58,206v-13a4.12,4.12,0,0,0-3.68-4.07A32,32,0,0,1,350.63,157.24Z"/><path class="cls-1" d="M215.46,157.24a32,32,0,0,1,28.89-31.8,3.37,3.37,0,0,0,3.05-3.36V108.54a18.88,18.88,0,0,0-18.83-18.83l-13.6,0a3.4,3.4,0,0,1-3.36-3.05,31.94,31.94,0,0,0-63.59,0,3.39,3.39,0,0,1-3.36,3.05l-13.6,0a18.89,18.89,0,0,0-18.83,18.83v13.54a3.36,3.36,0,0,1-3,3.36,31.95,31.95,0,0,0,0,63.6,3.38,3.38,0,0,1,3,3.37V206a18.9,18.9,0,0,0,18.83,18.84l16.81-.06a31.94,31.94,0,0,1,63.74-3,3.38,3.38,0,0,0,3.36,3.05l13.59,0A18.89,18.89,0,0,0,247.41,206V192.41a3.39,3.39,0,0,0-3.05-3.37A31.94,31.94,0,0,1,215.46,157.24Z"/><path class="cls-1" d="M217.72,254.65a6.65,6.65,0,0,0-6.65,6.64v17a6.65,6.65,0,0,0,13.29,0v-17A6.65,6.65,0,0,0,217.72,254.65Z"/><path class="cls-1" d="M217.72,0a6.64,6.64,0,0,0-6.65,6.64v17a6.65,6.65,0,0,0,13.29,0v-17A6.64,6.64,0,0,0,217.72,0Z"/><path class="cls-1" d="M45.1,119.63A6.64,6.64,0,0,0,38.46,113h-17a6.64,6.64,0,1,0,0,13.28h17A6.64,6.64,0,0,0,45.1,119.63Z"/><path class="cls-1" d="M96,33.77,83,22.86A6.64,6.64,0,0,0,74.41,33L87.41,44A6.64,6.64,0,1,0,96,33.77Z"/><path class="cls-1" d="M53,208.56l-15.77,6.27c-8.07,3.21-3.35,15.62,4.91,12.34l15.77-6.27A6.64,6.64,0,1,0,53,208.56Z"/><path class="cls-1" d="M425.54,121.79h-17a6.65,6.65,0,0,0,0,13.29h17a6.65,6.65,0,1,0,0-13.29Z"/><path class="cls-1" d="M399.19,255.32l-13-10.91a6.64,6.64,0,1,0-8.54,10.17l13,10.92a6.64,6.64,0,0,0,8.54-10.18Z"/><path class="cls-1" d="M343.58,18.85,330.2,29.31a6.64,6.64,0,1,0,8.18,10.46l13.38-10.45a6.64,6.64,0,0,0-8.18-10.47Z"/><path class="cls-3" d="M441.55,351.68,289.38,428.83a61.77,61.77,0,0,1-66.57-.17c-9.44-6.1-12.41-6.68-62.07-31.24-22.07-10.79-42.17-14.23-74.94-18.27V283.84H194.47a25.41,25.41,0,0,1,18,7.46l48.88,48.86a22.23,22.23,0,0,1,6.51,16.33l1-.71,159.49-40.16C449.53,313,459,340.6,441.55,351.68Z"/><path class="cls-1" d="M262,370.72a21.55,21.55,0,0,1-30.75.27l-40.64-40.65a11.52,11.52,0,0,0-8.18-3.39H85.8V283.84H194.47a25.44,25.44,0,0,1,18,7.45l48.88,48.87C269.63,348.45,270.22,362.15,262,370.72Z"/><path class="cls-2" d="M91.24,281.19V399a27.42,27.42,0,0,1-.45,4.91h0a27,27,0,0,1-26.45,22H39.1A27,27,0,0,1,12.2,399V281.19a27,27,0,0,1,22.18-26.48,26.31,26.31,0,0,1,4.72-.42H64.33A27,27,0,0,1,91.24,281.19Z"/><path class="cls-4" d="M91.24,281.19V399a27.42,27.42,0,0,1-.45,4.91h0a25.56,25.56,0,0,1-4.74.43H60.82a27,27,0,0,1-26.9-26.9V259.63a26.72,26.72,0,0,1,.46-4.92,26.31,26.31,0,0,1,4.72-.42H64.33A27,27,0,0,1,91.24,281.19Z"/><path class="cls-2" d="M67.63,383.55a15.91,15.91,0,1,1-15.91-15.91A15.91,15.91,0,0,1,67.63,383.55Z"/></svg>