<svg id="Capa_1" data-name="Capa 1" xmlns="http://www.w3.org/2000/svg" viewBox="0 0 34.5 70"><defs><style>.cls-1{fill:#353535;}.cls-2{fill:#4f4f4f;}.cls-3{fill:#ff4128;}.cls-4{fill:#ff6337;}.cls-5{fill:#85453d;}.cls-6{fill:#a45e43;}.cls-7{fill:#9db55f;}.cls-8{fill:#b9d171;}.cls-9{fill:#d5e3aa;}.cls-10{fill:#60312c;}</style></defs><title>Tourist Toy M</title><path class="cls-1" d="M10.78,23.52,15.09,30H4.3L6.46,19.21A4.32,4.32,0,0,1,10.78,23.52Z"/><path class="cls-2" d="M6.46,19.21V30L2.14,25.68V23.52A4.32,4.32,0,0,1,6.46,19.21Z"/><polygon class="cls-3" points="6.46 25.68 4.3 31.8 6.46 37.91 15.09 37.91 10.78 25.68 6.46 25.68"/><path class="cls-4" d="M6.46,37.91V25.68H2.14V33.6A4.32,4.32,0,0,0,6.46,37.91Z"/><path class="cls-5" d="M17.25,3.38v13a6.48,6.48,0,1,0,0-12.95Z"/><path class="cls-6" d="M19.41,9.85c0-3.57-1-6.47-2.16-6.47a6.48,6.48,0,0,0,0,13C18.44,16.33,19.41,13.43,19.41,9.85Z"/><polygon class="cls-7" points="20.85 0.5 18.31 0.5 15.81 3.38 19.04 6.26 22.64 6.26 20.85 0.5"/><polygon class="cls-8" points="13.65 0.5 11.87 6.26 19.04 6.26 18.31 0.5 13.65 0.5"/><path class="cls-7" d="M28,7.34H6.46a1.08,1.08,0,1,1,0-2.16H28a1.08,1.08,0,1,1,0,2.16Z"/><path class="cls-5" d="M22.65,37.91V66.2l3.58,1.2a1.08,1.08,0,1,1-.69,2L21.23,68a1.09,1.09,0,0,1-.74-1V37.91Z"/><path class="cls-5" d="M17.25,33.6V44.39a6.48,6.48,0,0,0,6.48-6.48Z"/><path class="cls-6" d="M11.86,37.91V54.13L5.56,63.5a1.08,1.08,0,0,0-.18.6v4.32a1.08,1.08,0,1,0,2.16,0v-4l6.29-9.37a1,1,0,0,0,.18-.6V37.91Z"/><path class="cls-6" d="M19.41,37.91,17.25,33.6l-6.47,4.31a6.48,6.48,0,0,0,6.47,6.48C18.44,44.39,19.41,41.49,19.41,37.91Z"/><path class="cls-9" d="M20.85,20.65H16.53l2.88,17.26h4.32V23.52A2.87,2.87,0,0,0,20.85,20.65Z"/><path class="cls-8" d="M16.53,20.65H13.65a2.87,2.87,0,0,0-2.87,2.87V37.91h8.63V23.52A2.87,2.87,0,0,0,16.53,20.65Z"/><path class="cls-10" d="M32.36,69.5a1.08,1.08,0,0,1-1.08-1.08V27.12a1.08,1.08,0,1,1,2.16,0v41.3A1.08,1.08,0,0,1,32.36,69.5Z"/><path class="cls-2" d="M4.3,31.08H2.14a1.08,1.08,0,0,1,0-2.16H4.3a1.08,1.08,0,1,1,0,2.16Z"/><path class="cls-6" d="M32.36,32.52H30.73a23,23,0,0,1-16.4-6.79,1.08,1.08,0,1,1,1.53-1.53,20.89,20.89,0,0,0,14.87,6.16h1.63a1.08,1.08,0,0,1,0,2.16Z"/></svg>