<svg id="Capa_1" data-name="Capa 1" xmlns="http://www.w3.org/2000/svg" viewBox="0 0 499.71 499.71"><defs><style>.cls-1{fill:#a4a4a4;}.cls-2{fill:#7a7a7a;}.cls-3{fill:#323232;}</style></defs><title>moonGrey</title><path class="cls-1" d="M151.57,369.8c120.52,0,218.21-97.7,218.21-218.22A217.25,217.25,0,0,0,318.7,11.4C417.07,43,488.31,135.12,488.31,244c0,135-109.39,244.33-244.33,244.33-108.87,0-201-71.23-232.59-169.61A217.2,217.2,0,0,0,151.57,369.8Z"/><path class="cls-2" d="M395,52.22A242.85,242.85,0,0,1,447.31,203C447.31,337.91,337.92,447.3,203,447.3A242.88,242.88,0,0,1,52.22,395C96.94,451.74,166.13,488.31,244,488.31c135,0,244.33-109.38,244.33-244.33C488.32,166.12,451.75,96.94,395,52.22Z"/><polygon class="cls-3" points="133.68 106.78 158.84 157.8 215.13 165.97 174.4 205.67 184.01 261.73 133.68 235.26 83.33 261.73 92.94 205.67 52.21 165.97 108.5 157.8 133.68 106.78"/><polygon class="cls-3" points="275.63 90.45 288.67 116.9 317.86 121.13 296.74 141.72 301.73 170.76 275.63 157.05 249.53 170.76 254.53 141.72 233.41 121.13 262.59 116.9 275.63 90.45"/></svg>