<svg id="Capa_1" data-name="Capa 1" xmlns="http://www.w3.org/2000/svg" viewBox="0 0 381.29 500.79"><defs><style>.cls-1{fill:#fff;}.cls-2{fill:#ddd;}</style></defs><title>pin</title><path id="Caminho_1" data-name="Caminho 1" class="cls-1" d="M190.64,14.55A166,166,0,0,0,24.81,180.38a163.52,163.52,0,0,0,24.88,87.06L179.4,479.7a13.11,13.11,0,0,0,9.4,6.36,13.79,13.79,0,0,0,14.1-6.63L333,265.21a163.64,163.64,0,0,0,23.49-84.85A166,166,0,0,0,190.64,14.55Zm0,248.75a82.8,82.8,0,1,1,.24,0Z"/><path id="Caminho_2" data-name="Caminho 2" class="cls-2" d="M190.64,14.55V97.47a82.92,82.92,0,0,1,0,165.83V486.24a13.7,13.7,0,0,0,12.25-6.79L333,265.24a163.58,163.58,0,0,0,23.49-84.85A166,166,0,0,0,190.64,14.55Z"/></svg>