<svg id="Capa_1" data-name="Capa 1" xmlns="http://www.w3.org/2000/svg" viewBox="0 0 499.71 499.71"><defs><style>.cls-1{fill:#f8867b;}.cls-2{fill:#ea6261;}</style></defs><title>sun</title><circle class="cls-1" cx="249.86" cy="249.86" r="138.54"/><path class="cls-2" d="M315.51,127.58c6,19.27,10.24,39.75,10.85,60.84,3.61,83.72-53,157.81-126.5,190.34A138.53,138.53,0,0,0,315.51,127.58Z"/><path class="cls-2" d="M249.86,8.91a20.31,20.31,0,0,0-20.48,20.48V63.13a20.48,20.48,0,1,0,41,0V29.39A20.32,20.32,0,0,0,249.86,8.91Z"/><path class="cls-2" d="M249.86,416.11a20.3,20.3,0,0,0-20.48,20.48v33.73a20.48,20.48,0,1,0,41,0V436.59A20.31,20.31,0,0,0,249.86,416.11Z"/><path class="cls-2" d="M490.8,249.86a20.31,20.31,0,0,0-20.48-20.48H436.58a20.48,20.48,0,1,0,0,41h33.74A20.32,20.32,0,0,0,490.8,249.86Z"/><path class="cls-2" d="M83.61,249.86a20.31,20.31,0,0,0-20.48-20.48H29.4a20.48,20.48,0,0,0,0,41H63.13A20.32,20.32,0,0,0,83.61,249.86Z"/><path class="cls-2" d="M420.32,79.39a20.73,20.73,0,0,0-28.91,0l-24.09,24.09a20.45,20.45,0,1,0,28.91,28.92l24.09-24.1A20.73,20.73,0,0,0,420.32,79.39Z"/><path class="cls-2" d="M132.4,367.31a20.74,20.74,0,0,0-28.92,0l-24.09,24.1a20.44,20.44,0,0,0,28.91,28.91l24.1-24.09C140.23,388.4,140.23,375.75,132.4,367.31Z"/><path class="cls-2" d="M420.32,420.32a20.73,20.73,0,0,0,0-28.91l-24.09-24.1a20.45,20.45,0,1,0-28.91,28.92l24.09,24.09A20.73,20.73,0,0,0,420.32,420.32Z"/><path class="cls-2" d="M132.4,132.4a20.74,20.74,0,0,0,0-28.92L108.3,79.39A20.44,20.44,0,0,0,79.39,108.3l24.09,24.1C111.32,140.23,124,140.23,132.4,132.4Z"/></svg>