<svg id="Capa_1" data-name="Capa 1" xmlns="http://www.w3.org/2000/svg" viewBox="0 0 293.31 482.26"><defs><style>.cls-1{fill:#fff;}.cls-2{fill:#ddd;}</style></defs><title>user</title><path id="Caminho_3" data-name="Caminho 3" class="cls-1" d="M229.71,366.7h0a133.82,133.82,0,0,0-16.45-10.58.75.75,0,0,0-.5-.2,87.89,87.89,0,0,1-45.43-77l-41-.21A87.58,87.58,0,0,1,80.5,355.82h-.1a136.09,136.09,0,0,0-16.52,10.57A138.42,138.42,0,0,0,8,477.7H285.31A138.38,138.38,0,0,0,229.71,366.7Z"/><path id="Caminho_5" data-name="Caminho 5" class="cls-1" d="M40.23,72.15V181c0,73.63,64.67,133.37,106.47,133.37S253.18,254.65,253.18,181V72.15Z"/><path id="Caminho_4" data-name="Caminho 4" class="cls-2" d="M285.31,477.8H8A138.38,138.38,0,0,1,63.91,366.49a134.56,134.56,0,0,1,16.52-10.57h.1a99.63,99.63,0,0,0,12.69-8.46,74.91,74.91,0,0,0,105.94,1.23l1.13-1.13a79.54,79.54,0,0,0,12.5,8.46c.2,0,.3.1.5.2A126.35,126.35,0,0,1,229.6,366.8h.1A138.08,138.08,0,0,1,285.31,477.8Z"/><path id="Caminho_6" data-name="Caminho 6" class="cls-2" d="M235.75,52.11A125.11,125.11,0,0,0,137.94,4.46,128.54,128.54,0,0,0,11.32,134.89v0a131.7,131.7,0,0,0,41.4,96.5A146.92,146.92,0,0,1,42.54,177,140.73,140.73,0,0,1,67.82,95c16.83,7.46,43.92,10.18,73.74,6,29.51-4,54.82-13.8,69-25.49A135.09,135.09,0,0,1,253.27,177a144.78,144.78,0,0,1-12.19,59c25-10.37,43.42-47.24,43.42-91.16C284.41,97.84,263.35,59.16,235.75,52.11Z"/></svg>