<svg id="Capa_1" data-name="Capa 1" xmlns="http://www.w3.org/2000/svg" viewBox="0 0 462.84 465.78"><defs><style>.cls-1{fill:#848484;}.cls-2{fill:#fff;}.cls-3{fill:#ddd;}</style></defs><title>home</title><rect class="cls-1" x="343.36" y="72.03" width="51.74" height="90.31"/><rect class="cls-1" x="323.61" y="25.93" width="91.25" height="48.92"/><path class="cls-2" d="M45.16,250.76v207.9H413.91V250.76L229.54,66.38h0C158,138.82,117.59,179.27,45.16,250.76Z"/><path class="cls-3" d="M414.86,250.76,230.48,66.38c-36.69,35.75-64.91,64-93.13,92.19L45.16,250.76v42.33L229.54,108.71,413.92,293.09v5.65h0v-48Z"/><path class="cls-1" d="M196.61,458.66h-111V349.54A55.61,55.61,0,0,1,141.11,294h0a55.61,55.61,0,0,1,55.5,55.51Z"/><rect class="cls-1" x="229.54" y="294.03" width="144.87" height="127"/><rect class="cls-3" x="244.59" y="309.09" width="49.86" height="96.89"/><rect class="cls-3" x="309.5" y="309.09" width="49.86" height="96.89"/><path class="cls-1" d="M448.72,212.19,252.11,15.59c-11.28-11.29-31-11.29-42.33,0L14.12,212.19c-11.29,11.29-11.29,31.05,0,42.33s31,11.29,42.33,0l175-175,175,175c11.29,11.29,31,11.29,42.33,0C460,242.3,460,223.48,448.72,212.19Z"/></svg>