<?xml version="1.0" encoding="utf-8"?>
<!-- Generator: Adobe Illustrator 23.0.0, SVG Export Plug-In . SVG Version: 6.00 Build 0)  -->
<svg version="1.1" id="Layer_1" xmlns="http://www.w3.org/2000/svg" xmlns:xlink="http://www.w3.org/1999/xlink" x="0px" y="0px"
	 viewBox="0 0 512 600" style="enable-background:new 0 0 512 600;" xml:space="preserve">
<style type="text/css">
	.st0{fill:#F7F7F7;}
	.st1{fill:#999999;}
	.st2{fill:none;stroke:#999999;stroke-width:2;stroke-miterlimit:10;}
</style>
<g>
	<polygon class="st0" points="490.7,468.6 490.7,452.5 488.5,449.2 488.5,433.6 486.8,430.8 486.8,346.9 494.6,339.2 484.1,337.5 
		484.1,332.5 481.8,329.7 483.5,326.4 481.8,324.7 481.8,321.9 484.1,318.6 480.7,318.6 480.7,314.2 478.5,314.2 478.5,318.9 
		475.4,318.9 478.5,321.9 478.5,324.7 476.8,326.9 477.9,329.7 475.7,333 475.7,336.4 420.7,325.8 420.7,264.7 426.8,258.6 
		412.4,258.6 381.3,239.7 361.3,259.2 352.9,259.2 336.3,283 342.4,285.3 342.4,325.3 200.2,324.7 96.3,325.3 36.8,338.6 
		36.8,334.7 35.2,332.5 36.3,329.2 35.7,325.3 38.5,320.3 35.2,320.3 35.2,315.8 32.9,315.8 32.9,320.3 28.5,320.3 31.8,324.7 
		31.3,329.2 32.4,331.9 30.7,334.7 30.7,339.7 17.4,341.4 27.4,348.6 27.4,431.1 25.2,434.2 25.2,448.6 22.9,451.9 22.9,468.6 	"/>
	<path class="st1" d="M292.1,411.1l4.4-2.8h-14.1v-41.1l-2.1-3.2l5-5.1h-7.1c0,0-3.5-3.9-12-3.9s-12,3.9-12,3.9h-8.5l6.4,5.8
		l-1.4,4.5v39.3H250h-14.4l6.1,3.8v42.2l-1.1,2.2v11.7h14.3v-40c0,0,0-8.4,11.7-8.4c12.6,0,12.6,8.4,12.6,8.4v40h14.3v-11.7
		l-1.1-2.2v-43.4H292.1z M256.2,373c0,0,0-6.4,9.9-6.4c10.6,0,10.6,6.4,10.6,6.4v35.4l-20.5,0.1V373L256.2,373z"/>
	<g>
		<rect x="47.7" y="364.9" class="st2" width="29.7" height="29.7"/>
		<rect x="90.5" y="364.9" class="st2" width="29.7" height="29.7"/>
		<rect x="133.4" y="364.9" class="st2" width="29.7" height="29.7"/>
		<rect x="176.2" y="364.9" class="st2" width="29.7" height="29.7"/>
	</g>
	<g>
		<rect x="350.9" y="364.9" class="st2" width="29.7" height="29.7"/>
		<rect x="393.8" y="364.9" class="st2" width="29.7" height="29.7"/>
		<rect x="436.6" y="364.9" class="st2" width="29.7" height="29.7"/>
	</g>
</g>
</svg>
