<?xml version="1.0" encoding="utf-8"?>
<!-- Generator: Adobe Illustrator 23.0.0, SVG Export Plug-In . SVG Version: 6.00 Build 0)  -->
<svg version="1.1" id="Layer_1" xmlns="http://www.w3.org/2000/svg" xmlns:xlink="http://www.w3.org/1999/xlink" x="0px" y="0px"
	 viewBox="0 0 288 600" style="enable-background:new 0 0 288 600;" xml:space="preserve">
<style type="text/css">
	.st0{fill:#F7F7F7;}
	.st1{fill:#999999;}
</style>
<g>
	<polygon class="st0" points="21.2,460 21.2,374.4 26.8,363.3 31.8,363.3 31.8,290 34,288.3 35.7,290 35.7,291.7 39.6,291.7 
		39.6,290 41,288.6 42.3,290 42.3,292.2 44.6,292.2 44.6,285 43.5,282.8 46.2,282.8 56.2,250.6 56.2,249.4 56.2,248.3 58.5,248.3 
		58.5,239.4 59,238.3 59.6,239.4 59.6,248.3 60.7,248.3 61.2,251.1 61.2,251.7 60.1,251.7 67.9,282.8 69.6,282.8 71.8,293.3 
		70.7,294.4 75.1,294.4 75.1,291.1 76.2,288.9 77.9,291.1 77.9,294.4 79,294.4 80.1,306.7 80.1,343.3 98.5,334.4 98.5,304.4 
		95.1,304.4 95.1,298.9 152.3,267.2 152.3,263.9 150.7,263.9 152.3,260.5 149,260.5 149,258.3 151.8,259.4 151.8,256.7 154,256.7 
		152.9,259.4 156.2,259.4 156.2,262.2 152.9,260.5 154,263.9 152.9,263.9 152.9,266.7 210.1,301.1 206.8,306.7 207.3,336.1 
		266.8,366.7 266.8,470 36,470 36,459.7 	"/>
	<g>
		<circle class="st1" cx="154" cy="335" r="13.1"/>
		<path class="st1" d="M153.2,400.3c0,0-24.4,3.3-25,32.2V470h54.5v-37.5c0,0,0.5-25-24.5-32.2v-5.6l-2.8-2.2l-2.2,1.7V400.3z"/>
	</g>
</g>
<g>
	<polygon class="st0" points="832.1,887.8 832.1,871.7 829.9,868.3 829.9,852.8 828.2,850 828.2,766.1 836,758.3 825.4,756.7 
		825.4,751.7 823.2,748.9 824.9,745.6 823.2,743.9 823.2,741.1 825.4,737.8 822.1,737.8 822.1,733.3 819.9,733.3 819.9,738.1 
		816.8,738.1 819.9,741.1 819.9,743.9 818.2,746.1 819.3,748.9 817.1,752.2 817.1,755.6 762.1,745 762.1,683.9 768.2,677.8 
		753.8,677.8 722.7,658.9 702.7,678.3 694.3,678.3 677.7,702.2 683.8,704.4 683.8,744.4 541.5,743.9 437.7,744.4 378.2,757.8 
		378.2,753.9 376.5,751.7 377.7,748.3 377.1,744.4 379.9,739.4 376.5,739.4 376.5,735 374.3,735 374.3,739.4 369.9,739.4 
		373.2,743.9 372.7,748.3 373.8,751.1 372.1,753.9 372.1,758.9 358.8,760.6 368.8,767.8 368.8,850.3 366.5,853.3 366.5,867.8 
		364.3,871.1 364.3,887.8 	"/>
	<path class="st1" d="M412.1,785.3h-5.6c0,0-2.8-3-9.4-3c-6.7,0-9.4,3-9.4,3H381l5,4.6l-1.1,3.6V828l2.8,2.5h19.4l2.8-3v-35.6
		l-1.7-2.5L412.1,785.3z M405.4,827.5h-16.1v-31c0,0,0-5.1,7.8-5.1c8.3,0,8.3,5.1,8.3,5.1L405.4,827.5L405.4,827.5z"/>
	<path class="st1" d="M452.9,785.6h-5.6c0,0-2.8-3-9.4-3s-9.4,3-9.4,3h-6.7l5,4.6l-1.1,3.6v34.6l2.8,2.5h19.4l2.8-3v-35.6l-1.7-2.5
		L452.9,785.6z M446.3,827.8h-16.1v-31c0,0,0-5.1,7.8-5.1c8.3,0,8.3,5.1,8.3,5.1L446.3,827.8L446.3,827.8z"/>
	<path class="st1" d="M493.5,785.5h-5.6c0,0-2.8-3-9.4-3c-6.7,0-9.4,3-9.4,3h-6.7l5,4.6l-1.1,3.6v34.6l2.8,2.5h19.4l2.8-3v-35.6
		l-1.7-2.5L493.5,785.5z M486.8,827.8h-16.1v-31c0,0,0-5.1,7.8-5.1c8.3,0,8.3,5.1,8.3,5.1L486.8,827.8L486.8,827.8z"/>
	<path class="st1" d="M534.6,785.5H529c0,0-2.8-3-9.4-3c-6.7,0-9.4,3-9.4,3h-6.7l5,4.6l-1.1,3.6v34.6l2.8,2.5h19.4l2.8-3v-35.6
		l-1.7-2.5L534.6,785.5z M527.9,827.8h-16.1v-31c0,0,0-5.1,7.8-5.1c8.3,0,8.3,5.1,8.3,5.1V827.8L527.9,827.8z"/>
	<path class="st1" d="M572.9,785.5h-5.6c0,0-2.8-3-9.4-3s-9.4,3-9.4,3h-6.7l5,4.6l-1.1,3.6v34.6l2.8,2.5h19.4l2.8-3v-35.6l-1.7-2.5
		L572.9,785.5z M566.3,827.8h-16.1v-31c0,0,0-5.1,7.8-5.1c8.3,0,8.3,5.1,8.3,5.1L566.3,827.8L566.3,827.8z"/>
	<path class="st1" d="M670.2,785.5h-5.5c0,0-2.8-3-9.4-3c-6.7,0-9.4,3-9.4,3h-6.7l5,4.6l-1.1,3.6v34.6l2.8,2.5h19.4l2.8-3v-35.6
		l-1.7-2.5L670.2,785.5z M663.5,827.8h-16.1v-31c0,0,0-5.1,7.8-5.1c8.3,0,8.3,5.1,8.3,5.1L663.5,827.8L663.5,827.8z"/>
	<path class="st1" d="M708.5,785.5h-5.6c0,0-2.8-3-9.4-3s-9.4,3-9.4,3h-6.7l5,4.6l-1.1,3.6v34.6l2.8,2.5h19.4l2.8-3v-35.6l-1.7-2.5
		L708.5,785.5z M701.8,827.8h-16.1v-31c0,0,0-5.1,7.8-5.1c8.3,0,8.3,5.1,8.3,5.1L701.8,827.8L701.8,827.8z"/>
	<path class="st1" d="M746.8,785.5h-5.6c0,0-2.8-3-9.4-3c-6.7,0-9.4,3-9.4,3h-6.7l5,4.6l-1.1,3.6v34.6l2.8,2.5h19.4l2.8-3v-35.6
		l-1.7-2.5L746.8,785.5z M740.2,827.8H724v-31c0,0,0-5.1,7.8-5.1c8.3,0,8.3,5.1,8.3,5.1L740.2,827.8L740.2,827.8z"/>
	<path class="st1" d="M783.5,785.5h-5.6c0,0-2.8-3-9.4-3s-9.4,3-9.4,3h-6.7l5,4.6l-1.1,3.6v34.6l2.8,2.5h19.4l2.8-3v-35.6l-1.7-2.5
		L783.5,785.5z M776.8,827.8h-16.1v-31c0,0,0-5.1,7.8-5.1c8.3,0,8.3,5.1,8.3,5.1L776.8,827.8L776.8,827.8z"/>
	<path class="st1" d="M818.5,785.5h-5.6c0,0-2.8-3-9.4-3s-9.4,3-9.4,3h-6.7l5,4.6l-1.1,3.6v34.6l2.8,2.5h19.4l2.8-3v-35.6l-1.7-2.5
		L818.5,785.5z M811.8,827.8h-16.1v-31c0,0,0-5.1,7.8-5.1c8.3,0,8.3,5.1,8.3,5.1L811.8,827.8L811.8,827.8z"/>
	<path class="st1" d="M633.5,830.3l4.4-2.8l-14.1,0v-41.2l-2.1-3.2l5-5.2h-7.1c0,0-3.5-3.9-12-3.9s-12,3.9-12,3.9H587l6.4,5.8
		l-1.4,4.5v39.3h-0.7h-14.4l6.1,3.8v42.2l-1.1,2.2v11.7h14.3v-40c0,0,0-8.4,11.7-8.4c12.6,0,12.6,8.4,12.6,8.4v40h14.3v-11.7
		l-1.1-2.2V830.3z M597.6,792.2c0,0,0-6.4,9.9-6.4c10.6,0,10.6,6.4,10.6,6.4v35.4l-20.5,0.1L597.6,792.2L597.6,792.2z"/>
</g>
</svg>
